<?xml version="1.0" encoding="UTF-8"?>
<svg xmlns="http://www.w3.org/2000/svg" viewBox="0 0 96 96" role="img" aria-label="FastDigiTop logo">
  <defs>
    <linearGradient id="g" x1="12" y1="10" x2="84" y2="86" gradientUnits="userSpaceOnUse">
      <stop offset="0" stop-color="#2563ff"/>
      <stop offset="1" stop-color="#14c9c9"/>
    </linearGradient>
  </defs>
  <rect x="8" y="8" width="80" height="80" rx="20" fill="url(#g)" transform="rotate(-6 48 48)"/>
  <rect x="18" y="20" width="50" height="14" rx="7" fill="#ffffff" opacity=".24"/>
  <path d="M25 31c0-4 3-7 7-7h14c10 0 17 5 17 13 0 6-3 10-9 12l8 12h-16l-6-10h-2v10H25V31Zm16 8h4c3 0 5-1 5-3s-2-3-5-3h-4v6Z" fill="#fff"/>
  <circle cx="68" cy="26" r="5" fill="#fff" opacity=".9"/>
</svg>